<?xml version="1.0" encoding="UTF-8" standalone="no"?>
<!DOCTYPE svg PUBLIC "-//W3C//DTD SVG 1.1//EN"
 "http://www.w3.org/Graphics/SVG/1.1/DTD/svg11.dtd">
<!-- Generated by graphviz version 2.38.0 (20140413.2041)
 -->
<!-- Title: G Pages: 1 -->
<svg width="2688pt" height="686pt"
 viewBox="0.00 0.00 2687.84 686.00" xmlns="http://www.w3.org/2000/svg" xmlns:xlink="http://www.w3.org/1999/xlink">
<g id="graph0" class="graph" transform="scale(1 1) rotate(0) translate(4 682)">
<title>G</title>
<polygon fill="white" stroke="none" points="-4,4 -4,-682 2683.84,-682 2683.84,4 -4,4"/>
<text text-anchor="middle" x="1339.92" y="-634" font-family="Times New Roman,serif" font-size="50.00">Log10&#45;transformed Change in Plasma HIV RNA Copies</text>
<g id="clust1" class="cluster"><title>cluster_fss</title>
<polygon fill="none" stroke="black" stroke-width="0" points="8,-8 8,-607 1056,-607 1056,-8 8,-8"/>
<text text-anchor="middle" x="532" y="-563" font-family="Times New Roman,serif" font-size="50.00">Feature Set Selector</text>
</g>
<g id="clust2" class="cluster"><title>cluster_transformer</title>
<polygon fill="none" stroke="black" stroke-width="0" points="1225,-149 1225,-607 1591.72,-607 1591.72,-149 1225,-149"/>
<text text-anchor="middle" x="1408.36" y="-563" font-family="Times New Roman,serif" font-size="50.00">Transformer</text>
</g>
<g id="clust4" class="cluster"><title>cluster_score</title>
<polygon fill="none" stroke="black" stroke-width="0" points="2454.84,-177 2454.84,-607 2679.84,-607 2679.84,-177 2454.84,-177"/>
<text text-anchor="middle" x="2567.34" y="-563" font-family="Times New Roman,serif" font-size="50.00">R^2 Score</text>
</g>
<g id="clust3" class="cluster"><title>cluster_regressor</title>
<polygon fill="none" stroke="black" stroke-width="0" points="1760.72,-299 1760.72,-607 2285.84,-607 2285.84,-299 1760.72,-299"/>
<text text-anchor="middle" x="2023.28" y="-563" font-family="Times New Roman,serif" font-size="50.00">Regressor</text>
</g>
<!-- cluster_fss -->
<!-- cluster_transformer -->
<!-- cluster_fss&#45;&gt;cluster_transformer -->
<g id="edge31" class="edge"><title>cluster_fss&#45;&gt;cluster_transformer</title>
</g>
<!-- GSE7460_CTRL_VS_FOXP3_OVEREXPR_TCONV_UP -->
<g id="node2" class="node"><title>GSE7460_CTRL_VS_FOXP3_OVEREXPR_TCONV_UP</title>
<path fill="none" stroke="black" d="M848.5,-531C848.5,-531 215.5,-531 215.5,-531 209.5,-531 203.5,-525 203.5,-519 203.5,-519 203.5,-415 203.5,-415 203.5,-409 209.5,-403 215.5,-403 215.5,-403 848.5,-403 848.5,-403 854.5,-403 860.5,-409 860.5,-415 860.5,-415 860.5,-519 860.5,-519 860.5,-525 854.5,-531 848.5,-531"/>
<text text-anchor="start" x="449" y="-496" font-family="Times New Roman,serif" font-size="40.00"> GSE7460</text>
<text text-anchor="start" x="211.5" y="-456" font-family="Times New Roman,serif" font-size="40.00">CTRL vs FOXP3 OVEREXPR TCONV</text>
<text text-anchor="start" x="432" y="-416" font-family="Times New Roman,serif" font-size="40.00" fill="#196f3d">upregulated</text>
<text text-anchor="start" x="622" y="-416" font-family="Times New Roman,serif" font-size="40.00"> </text>
</g>
<!-- normalizer -->
<g id="node7" class="node"><title>normalizer</title>
<ellipse fill="none" stroke="black" cx="1408.36" cy="-494" rx="134.201" ry="36.5405"/>
<text text-anchor="middle" x="1408.36" y="-484" font-family="Times New Roman,serif" font-size="40.00">normalizer</text>
</g>
<!-- GSE7460_CTRL_VS_FOXP3_OVEREXPR_TCONV_UP&#45;&gt;normalizer -->
<g id="edge34" class="edge"><title>GSE7460_CTRL_VS_FOXP3_OVEREXPR_TCONV_UP&#45;&gt;normalizer</title>
<path fill="none" stroke="#0f3d68" stroke-width="5.6" d="M860.757,-477.121C1000.12,-481.424 1155.34,-486.218 1264.65,-489.593"/>
<polygon fill="#0f3d68" stroke="#0f3d68" stroke-width="5.6" points="1264.61,-494.494 1274.75,-489.905 1264.91,-484.699 1264.61,-494.494"/>
<text text-anchor="middle" x="1140.5" y="-499" font-family="Times New Roman,serif" font-size="40.00">1</text>
</g>
<!-- GSE45365_HEALTHY_VS_MCMV_INFECTION_CD8A_DC_IFNAR_KO_DN -->
<g id="node3" class="node"><title>GSE45365_HEALTHY_VS_MCMV_INFECTION_CD8A_DC_IFNAR_KO_DN</title>
<path fill="none" stroke="black" d="M1004,-402C1004,-402 60,-402 60,-402 54,-402 48,-396 48,-390 48,-390 48,-286 48,-286 48,-280 54,-274 60,-274 60,-274 1004,-274 1004,-274 1010,-274 1016,-280 1016,-286 1016,-286 1016,-390 1016,-390 1016,-396 1010,-402 1004,-402"/>
<text text-anchor="start" x="439" y="-367" font-family="Times New Roman,serif" font-size="40.00"> GSE45365</text>
<text text-anchor="start" x="56" y="-327" font-family="Times New Roman,serif" font-size="40.00">HEALTHY vs MCMV INFECTION CD8A DC IFNAR KO</text>
<text text-anchor="start" x="407.5" y="-287" font-family="Times New Roman,serif" font-size="40.00" fill="#943126">downregulated</text>
<text text-anchor="start" x="646.5" y="-287" font-family="Times New Roman,serif" font-size="40.00"> </text>
</g>
<!-- zerocount -->
<g id="node8" class="node"><title>zerocount</title>
<ellipse fill="none" stroke="black" cx="1408.36" cy="-419" rx="124.402" ry="36.5405"/>
<text text-anchor="middle" x="1408.36" y="-409" font-family="Times New Roman,serif" font-size="40.00">zerocount</text>
</g>
<!-- GSE45365_HEALTHY_VS_MCMV_INFECTION_CD8A_DC_IFNAR_KO_DN&#45;&gt;zerocount -->
<g id="edge37" class="edge"><title>GSE45365_HEALTHY_VS_MCMV_INFECTION_CD8A_DC_IFNAR_KO_DN&#45;&gt;zerocount</title>
<path fill="none" stroke="#115473" stroke-width="5.2" d="M1016.08,-398.204C1029.55,-400.718 1042.88,-403.317 1056,-406 1084.95,-411.92 1090.73,-419.962 1120,-424 1138.05,-426.49 1142.78,-424.185 1161,-424 1197.66,-423.628 1237.38,-422.945 1274.01,-422.2"/>
<polygon fill="#115473" stroke="#115473" stroke-width="5.2" points="1274.34,-426.745 1284.25,-421.989 1274.16,-417.646 1274.34,-426.745"/>
<text text-anchor="middle" x="1140.5" y="-438" font-family="Times New Roman,serif" font-size="40.00">2</text>
</g>
<!-- pca -->
<g id="node9" class="node"><title>pca</title>
<ellipse fill="none" stroke="black" cx="1408.36" cy="-344" rx="51.7379" ry="36.5405"/>
<text text-anchor="middle" x="1408.36" y="-334" font-family="Times New Roman,serif" font-size="40.00">pca</text>
</g>
<!-- GSE45365_HEALTHY_VS_MCMV_INFECTION_CD8A_DC_IFNAR_KO_DN&#45;&gt;pca -->
<g id="edge40" class="edge"><title>GSE45365_HEALTHY_VS_MCMV_INFECTION_CD8A_DC_IFNAR_KO_DN&#45;&gt;pca</title>
<path fill="none" stroke="#146e7d" stroke-width="4.8" d="M1016.04,-381.673C1065.01,-382.233 1114,-381.228 1161,-378 1225.28,-373.586 1298.33,-362.766 1348.08,-354.507"/>
<polygon fill="#146e7d" stroke="#146e7d" stroke-width="4.8" points="1348.85,-358.636 1358.02,-352.84 1347.47,-350.352 1348.85,-358.636"/>
<text text-anchor="middle" x="1140.5" y="-392" font-family="Times New Roman,serif" font-size="40.00">3</text>
</g>
<!-- GSE45365_HEALTHY_VS_MCMV_INFECTION_CD8A_DC_IFNAR_KO_DN&#45;&gt;pca -->
<g id="edge43" class="edge"><title>GSE45365_HEALTHY_VS_MCMV_INFECTION_CD8A_DC_IFNAR_KO_DN&#45;&gt;pca</title>
<path fill="none" stroke="#178784" stroke-width="4.4" d="M1016.02,-332.324C1065,-332.527 1113.99,-333.046 1161,-334 1224.13,-335.281 1296.3,-338.406 1346.14,-340.824"/>
<polygon fill="#178784" stroke="#178784" stroke-width="4.4" points="1346.25,-344.684 1356.42,-341.329 1346.62,-336.993 1346.25,-344.684"/>
<text text-anchor="middle" x="1140.5" y="-346" font-family="Times New Roman,serif" font-size="40.00">4</text>
</g>
<!-- GSE45365_HEALTHY_VS_MCMV_INFECTION_CD8A_DC_IFNAR_KO_DN&#45;&gt;pca -->
<g id="edge46" class="edge"><title>GSE45365_HEALTHY_VS_MCMV_INFECTION_CD8A_DC_IFNAR_KO_DN&#45;&gt;pca</title>
<path fill="none" stroke="#1a9079" stroke-width="4" d="M1016.29,-283.094C1065.21,-282.918 1114.12,-284.922 1161,-290 1170.39,-291.017 1279,-315.186 1348.85,-330.842"/>
<polygon fill="#1a9079" stroke="#1a9079" stroke-width="4" points="1348.33,-334.313 1358.85,-333.086 1349.86,-327.482 1348.33,-334.313"/>
<text text-anchor="middle" x="1140.5" y="-302" font-family="Times New Roman,serif" font-size="40.00">5</text>
</g>
<!-- GSE45365_HEALTHY_VS_MCMV_INFECTION_CD8A_DC_IFNAR_KO_DN&#45;&gt;pca -->
<g id="edge49" class="edge"><title>GSE45365_HEALTHY_VS_MCMV_INFECTION_CD8A_DC_IFNAR_KO_DN&#45;&gt;pca</title>
<path fill="none" stroke="#2ea045" stroke-width="3.6" d="M1016.26,-280.049C1029.69,-276.874 1042.96,-273.528 1056,-270 1102.51,-257.414 1116.19,-225.281 1161,-243 1197.26,-257.338 1190.55,-284.749 1225,-303 1262.74,-322.994 1309.88,-333.267 1346.78,-338.529"/>
<polygon fill="#2ea045" stroke="#2ea045" stroke-width="3.6" points="1346.52,-342.026 1356.9,-339.884 1347.45,-335.088 1346.52,-342.026"/>
<text text-anchor="middle" x="1140.5" y="-255" font-family="Times New Roman,serif" font-size="40.00">6</text>
</g>
<!-- GSE45365_HEALTHY_VS_MCMV_INFECTION_CD8A_DC_IFNAR_KO_DN&#45;&gt;pca -->
<g id="edge52" class="edge"><title>GSE45365_HEALTHY_VS_MCMV_INFECTION_CD8A_DC_IFNAR_KO_DN&#45;&gt;pca</title>
<path fill="none" stroke="#56a63f" stroke-width="3.2" d="M1016.23,-289.286C1029.85,-283.437 1043.14,-277.025 1056,-270 1094.75,-248.825 1079.96,-212.627 1120,-194 1136.52,-186.314 1145.19,-184.947 1161,-194 1209.75,-221.911 1179.62,-269.88 1225,-303 1259.98,-328.532 1308.05,-338.586 1346.05,-342.361"/>
<polygon fill="#56a63f" stroke="#56a63f" stroke-width="3.2" points="1346.22,-345.889 1356.48,-343.267 1346.82,-338.915 1346.22,-345.889"/>
<text text-anchor="middle" x="1140.5" y="-206" font-family="Times New Roman,serif" font-size="40.00">7</text>
</g>
<!-- GSE40184_HEALTHY_VS_HCV_INFECTED_DONOR_PBMC_UP -->
<g id="node4" class="node"><title>GSE40184_HEALTHY_VS_HCV_INFECTED_DONOR_PBMC_UP</title>
<path fill="none" stroke="black" d="M924.5,-273C924.5,-273 139.5,-273 139.5,-273 133.5,-273 127.5,-267 127.5,-261 127.5,-261 127.5,-157 127.5,-157 127.5,-151 133.5,-145 139.5,-145 139.5,-145 924.5,-145 924.5,-145 930.5,-145 936.5,-151 936.5,-157 936.5,-157 936.5,-261 936.5,-261 936.5,-267 930.5,-273 924.5,-273"/>
<text text-anchor="start" x="439" y="-238" font-family="Times New Roman,serif" font-size="40.00"> GSE40184</text>
<text text-anchor="start" x="135.5" y="-198" font-family="Times New Roman,serif" font-size="40.00">HEALTHY vs HCV INFECTED DONOR PBMC</text>
<text text-anchor="start" x="432" y="-158" font-family="Times New Roman,serif" font-size="40.00" fill="#196f3d">upregulated</text>
<text text-anchor="start" x="622" y="-158" font-family="Times New Roman,serif" font-size="40.00"> </text>
</g>
<!-- maxabsscaler -->
<g id="node10" class="node"><title>maxabsscaler</title>
<ellipse fill="none" stroke="black" cx="1408.36" cy="-269" rx="164.512" ry="36.5405"/>
<text text-anchor="middle" x="1408.36" y="-259" font-family="Times New Roman,serif" font-size="40.00">maxabsscaler</text>
</g>
<!-- GSE40184_HEALTHY_VS_HCV_INFECTED_DONOR_PBMC_UP&#45;&gt;maxabsscaler -->
<g id="edge55" class="edge"><title>GSE40184_HEALTHY_VS_HCV_INFECTED_DONOR_PBMC_UP&#45;&gt;maxabsscaler</title>
<path fill="none" stroke="#8dac4f" stroke-width="2.8" d="M936.874,-158.994C1051.44,-146.4 1148.8,-137.957 1161,-144 1203.06,-164.831 1185.5,-202.655 1225,-228 1235.88,-234.982 1247.79,-240.784 1260.15,-245.603"/>
<polygon fill="#8dac4f" stroke="#8dac4f" stroke-width="2.8" points="1259.09,-248.94 1269.68,-249.101 1261.5,-242.369 1259.09,-248.94"/>
<text text-anchor="middle" x="1140.5" y="-156" font-family="Times New Roman,serif" font-size="40.00">8</text>
</g>
<!-- GSE1460_CD4_THYMOCYTE_VS_NAIVE_CD4_TCELL_ADULT_BLOOD_DN -->
<g id="node5" class="node"><title>GSE1460_CD4_THYMOCYTE_VS_NAIVE_CD4_TCELL_ADULT_BLOOD_DN</title>
<path fill="none" stroke="black" d="M1036,-144C1036,-144 28,-144 28,-144 22,-144 16,-138 16,-132 16,-132 16,-28 16,-28 16,-22 22,-16 28,-16 28,-16 1036,-16 1036,-16 1042,-16 1048,-22 1048,-28 1048,-28 1048,-132 1048,-132 1048,-138 1042,-144 1036,-144"/>
<text text-anchor="start" x="449" y="-109" font-family="Times New Roman,serif" font-size="40.00"> GSE1460</text>
<text text-anchor="start" x="24" y="-69" font-family="Times New Roman,serif" font-size="40.00">CD4 THYMOCYTE vs NAIVE CD4 TCELL ADULT BLOOD</text>
<text text-anchor="start" x="407.5" y="-29" font-family="Times New Roman,serif" font-size="40.00" fill="#943126">downregulated</text>
<text text-anchor="start" x="646.5" y="-29" font-family="Times New Roman,serif" font-size="40.00"> </text>
</g>
<!-- standardscaler -->
<g id="node11" class="node"><title>standardscaler</title>
<ellipse fill="none" stroke="black" cx="1408.36" cy="-194" rx="175.225" ry="36.5405"/>
<text text-anchor="middle" x="1408.36" y="-184" font-family="Times New Roman,serif" font-size="40.00">standardscaler</text>
</g>
<!-- GSE1460_CD4_THYMOCYTE_VS_NAIVE_CD4_TCELL_ADULT_BLOOD_DN&#45;&gt;standardscaler -->
<g id="edge58" class="edge"><title>GSE1460_CD4_THYMOCYTE_VS_NAIVE_CD4_TCELL_ADULT_BLOOD_DN&#45;&gt;standardscaler</title>
<path fill="none" stroke="#b3ab60" stroke-width="2.4" d="M1048.27,-81.4829C1086.59,-85.8981 1124.51,-91.6362 1161,-99 1219.24,-110.754 1281.66,-134.957 1329.09,-155.991"/>
<polygon fill="#b3ab60" stroke="#b3ab60" stroke-width="2.4" points="1327.82,-159.255 1338.37,-160.151 1330.68,-152.867 1327.82,-159.255"/>
<text text-anchor="middle" x="1140.5" y="-111" font-family="Times New Roman,serif" font-size="40.00">9</text>
</g>
<!-- GSE1460_CD4_THYMOCYTE_VS_NAIVE_CD4_TCELL_ADULT_BLOOD_DN&#45;&gt;standardscaler -->
<g id="edge61" class="edge"><title>GSE1460_CD4_THYMOCYTE_VS_NAIVE_CD4_TCELL_ADULT_BLOOD_DN&#45;&gt;standardscaler</title>
<path fill="none" stroke="#b99370" stroke-width="2" d="M1048.25,-28.3044C1086.72,-32.4325 1124.66,-39.1006 1161,-49 1234.18,-68.9368 1307.78,-116.744 1355.23,-152.042"/>
<polygon fill="#b99370" stroke="#b99370" stroke-width="2" points="1353.39,-155.039 1363.48,-158.256 1357.6,-149.446 1353.39,-155.039"/>
<text text-anchor="middle" x="1140.5" y="-61" font-family="Times New Roman,serif" font-size="40.00">10</text>
</g>
<!-- cluster_regressor -->
<!-- cluster_transformer&#45;&gt;cluster_regressor -->
<g id="edge32" class="edge"><title>cluster_transformer&#45;&gt;cluster_regressor</title>
</g>
<!-- decisiontreeregressor -->
<g id="node13" class="node"><title>decisiontreeregressor</title>
<ellipse fill="none" stroke="black" cx="2023.28" cy="-494" rx="254.617" ry="36.5405"/>
<text text-anchor="middle" x="2023.28" y="-484" font-family="Times New Roman,serif" font-size="40.00">decisiontreeregressor</text>
</g>
<!-- normalizer&#45;&gt;decisiontreeregressor -->
<g id="edge35" class="edge"><title>normalizer&#45;&gt;decisiontreeregressor</title>
<path fill="none" stroke="#0f3d68" stroke-width="5.6" d="M1542.65,-491.441C1579.3,-490.845 1619.04,-490.298 1655.72,-490 1689.32,-489.727 1724.65,-489.737 1759.56,-489.925"/>
<polygon fill="#0f3d68" stroke="#0f3d68" stroke-width="5.6" points="1759.86,-494.826 1769.89,-489.985 1759.92,-485.027 1759.86,-494.826"/>
<text text-anchor="middle" x="1676.22" y="-502" font-family="Times New Roman,serif" font-size="40.00">1</text>
</g>
<!-- linearsvr -->
<g id="node14" class="node"><title>linearsvr</title>
<ellipse fill="none" stroke="black" cx="2023.28" cy="-419" rx="111.032" ry="36.5405"/>
<text text-anchor="middle" x="2023.28" y="-409" font-family="Times New Roman,serif" font-size="40.00">linearsvr</text>
</g>
<!-- zerocount&#45;&gt;linearsvr -->
<g id="edge38" class="edge"><title>zerocount&#45;&gt;linearsvr</title>
<path fill="none" stroke="#115473" stroke-width="5.2" d="M1533.03,-419C1640.58,-419 1795.48,-419 1902.02,-419"/>
<polygon fill="#115473" stroke="#115473" stroke-width="5.2" points="1902.18,-423.55 1912.18,-419 1902.18,-414.45 1902.18,-423.55"/>
<text text-anchor="middle" x="1676.22" y="-431" font-family="Times New Roman,serif" font-size="40.00">2</text>
</g>
<!-- pca&#45;&gt;linearsvr -->
<g id="edge41" class="edge"><title>pca&#45;&gt;linearsvr</title>
<path fill="none" stroke="#146e7d" stroke-width="4.8" d="M1459.5,-348.997C1516.89,-354.811 1613.66,-364.909 1696.72,-375 1768.07,-383.668 1848.06,-394.463 1910.89,-403.191"/>
<polygon fill="#146e7d" stroke="#146e7d" stroke-width="4.8" points="1910.34,-407.355 1920.83,-404.574 1911.5,-399.035 1910.34,-407.355"/>
<text text-anchor="middle" x="1676.22" y="-387" font-family="Times New Roman,serif" font-size="40.00">3</text>
</g>
<!-- pca&#45;&gt;linearsvr -->
<g id="edge44" class="edge"><title>pca&#45;&gt;linearsvr</title>
<path fill="none" stroke="#178784" stroke-width="4.4" d="M1459.8,-339.499C1509.55,-335.299 1587.81,-329.34 1655.72,-327 1673.94,-326.372 1679.52,-320.985 1696.72,-327 1731.06,-339.006 1727.43,-363.363 1760.72,-378 1804.92,-397.43 1856.89,-407.817 1902.8,-413.312"/>
<polygon fill="#178784" stroke="#178784" stroke-width="4.4" points="1902.44,-417.145 1912.81,-414.444 1903.31,-409.494 1902.44,-417.145"/>
<text text-anchor="middle" x="1676.22" y="-339" font-family="Times New Roman,serif" font-size="40.00">4</text>
</g>
<!-- pca&#45;&gt;linearsvr -->
<g id="edge47" class="edge"><title>pca&#45;&gt;linearsvr</title>
<path fill="none" stroke="#1a9079" stroke-width="4" d="M1458.49,-334.482C1495.41,-326.962 1547.08,-315.651 1591.72,-303 1620.66,-294.8 1626.06,-285.957 1655.72,-281 1673.7,-277.997 1680.68,-272.363 1696.72,-281 1742.2,-305.48 1717.28,-350.062 1760.72,-378 1802.32,-404.751 1855.16,-416.258 1902.43,-420.61"/>
<polygon fill="#1a9079" stroke="#1a9079" stroke-width="4" points="1902.18,-424.1 1912.43,-421.432 1902.75,-417.124 1902.18,-424.1"/>
<text text-anchor="middle" x="1676.22" y="-293" font-family="Times New Roman,serif" font-size="40.00">5</text>
</g>
<!-- pca&#45;&gt;linearsvr -->
<g id="edge50" class="edge"><title>pca&#45;&gt;linearsvr</title>
<path fill="none" stroke="#2ea045" stroke-width="3.6" d="M1459.93,-340.832C1498.29,-336.559 1551.16,-326.529 1591.72,-303 1628.19,-281.848 1617.15,-249.999 1655.72,-233 1672.4,-225.652 1681.46,-223.051 1696.72,-233 1755.74,-271.461 1704.87,-335.072 1760.72,-378 1800.87,-408.858 1854.9,-420.75 1903.43,-424.285"/>
<polygon fill="#2ea045" stroke="#2ea045" stroke-width="3.6" points="1903.5,-427.796 1913.7,-424.917 1903.93,-420.809 1903.5,-427.796"/>
<text text-anchor="middle" x="1676.22" y="-245" font-family="Times New Roman,serif" font-size="40.00">6</text>
</g>
<!-- pca&#45;&gt;linearsvr -->
<g id="edge53" class="edge"><title>pca&#45;&gt;linearsvr</title>
<path fill="none" stroke="#56a63f" stroke-width="3.2" d="M1460.16,-343.725C1499.65,-341.071 1553.91,-331.808 1591.72,-303 1639.81,-266.372 1603.89,-214.098 1655.72,-183 1671.35,-173.625 1681.97,-172.311 1696.72,-183 1770.6,-236.505 1691.23,-318.919 1760.72,-378 1799.96,-411.353 1854.94,-423.366 1904.38,-426.33"/>
<polygon fill="#56a63f" stroke="#56a63f" stroke-width="3.2" points="1904.36,-429.832 1914.51,-426.817 1904.69,-422.84 1904.36,-429.832"/>
<text text-anchor="middle" x="1676.22" y="-195" font-family="Times New Roman,serif" font-size="40.00">7</text>
</g>
<!-- elasticnetcv -->
<g id="node15" class="node"><title>elasticnetcv</title>
<ellipse fill="none" stroke="black" cx="2023.28" cy="-344" rx="145.828" ry="36.5405"/>
<text text-anchor="middle" x="2023.28" y="-334" font-family="Times New Roman,serif" font-size="40.00">elasticnetcv</text>
</g>
<!-- maxabsscaler&#45;&gt;elasticnetcv -->
<g id="edge56" class="edge"><title>maxabsscaler&#45;&gt;elasticnetcv</title>
<path fill="none" stroke="#8dac4f" stroke-width="2.8" d="M1548.53,-249.593C1563.85,-244.063 1578.62,-237.004 1591.72,-228 1633.99,-198.962 1610.51,-156.196 1655.72,-132 1671.79,-123.402 1679.26,-126.814 1696.72,-132 1808.11,-165.069 1917.01,-249.629 1976.33,-301.408"/>
<polygon fill="#8dac4f" stroke="#8dac4f" stroke-width="2.8" points="1974.2,-304.194 1984.01,-308.177 1978.82,-298.941 1974.2,-304.194"/>
<text text-anchor="middle" x="1676.22" y="-144" font-family="Times New Roman,serif" font-size="40.00">8</text>
</g>
<!-- standardscaler&#45;&gt;elasticnetcv -->
<g id="edge59" class="edge"><title>standardscaler&#45;&gt;elasticnetcv</title>
<path fill="none" stroke="#b3ab60" stroke-width="2.4" d="M1451.42,-158.006C1507.14,-114.876 1608.68,-52.0629 1696.72,-83 1819.62,-126.18 1930.49,-237.464 1985.59,-299.879"/>
<polygon fill="#b3ab60" stroke="#b3ab60" stroke-width="2.4" points="1983.14,-302.387 1992.35,-307.611 1988.41,-297.779 1983.14,-302.387"/>
<text text-anchor="middle" x="1676.22" y="-95" font-family="Times New Roman,serif" font-size="40.00">9</text>
</g>
<!-- standardscaler&#45;&gt;elasticnetcv -->
<g id="edge62" class="edge"><title>standardscaler&#45;&gt;elasticnetcv</title>
<path fill="none" stroke="#b99370" stroke-width="2" d="M1438.27,-157.285C1488.67,-98.0415 1596.82,8.14342 1696.72,-32 1831.97,-86.3425 1942.69,-226.666 1993.02,-299.164"/>
<polygon fill="#b99370" stroke="#b99370" stroke-width="2" points="1990.31,-301.399 1998.86,-307.659 1996.08,-297.435 1990.31,-301.399"/>
<text text-anchor="middle" x="1676.22" y="-44" font-family="Times New Roman,serif" font-size="40.00">10</text>
</g>
<!-- cluster_score -->
<!-- cluster_regressor&#45;&gt;cluster_score -->
<g id="edge33" class="edge"><title>cluster_regressor&#45;&gt;cluster_score</title>
</g>
<!-- 0.087 -->
<g id="node20" class="node"><title>0.087</title>
<ellipse fill="black" stroke="black" cx="2567.34" cy="-466" rx="1.8" ry="1.8"/>
</g>
<!-- decisiontreeregressor&#45;&gt;0.087 -->
<g id="edge36" class="edge"><title>decisiontreeregressor&#45;&gt;0.087</title>
<path fill="none" stroke="#0f3d68" stroke-width="5.6" d="M2263.22,-481.658C2385.5,-475.342 2516.61,-468.569 2555.12,-466.58"/>
<polygon fill="#0f3d68" stroke="#0f3d68" stroke-width="5.6" points="2555.59,-471.462 2565.32,-466.053 2555.08,-461.675 2555.59,-471.462"/>
<text text-anchor="middle" x="2370.34" y="-489" font-family="Times New Roman,serif" font-size="40.00">1</text>
</g>
<!-- 0.083 -->
<g id="node24" class="node"><title>0.083</title>
<ellipse fill="black" stroke="black" cx="2567.34" cy="-446" rx="1.8" ry="1.8"/>
</g>
<!-- linearsvr&#45;&gt;0.083 -->
<g id="edge39" class="edge"><title>linearsvr&#45;&gt;0.083</title>
<path fill="none" stroke="#115473" stroke-width="5.2" d="M2133.81,-422.797C2206.68,-425.565 2304.53,-429.746 2390.84,-435 2419.32,-436.733 2426.37,-438.122 2454.84,-440 2491.58,-442.423 2535.17,-444.553 2555.23,-445.491"/>
<polygon fill="#115473" stroke="#115473" stroke-width="5.2" points="2555.04,-450.037 2565.24,-445.951 2555.46,-440.947 2555.04,-450.037"/>
<text text-anchor="middle" x="2370.34" y="-447" font-family="Times New Roman,serif" font-size="40.00">2</text>
</g>
<!-- 0.073 -->
<g id="node34" class="node"><title>0.073</title>
<ellipse fill="black" stroke="black" cx="2567.34" cy="-348" rx="1.8" ry="1.8"/>
</g>
<!-- linearsvr&#45;&gt;0.073 -->
<g id="edge42" class="edge"><title>linearsvr&#45;&gt;0.073</title>
<path fill="none" stroke="#146e7d" stroke-width="4.8" d="M2124.02,-403.427C2240.85,-385.264 2422.64,-357.289 2454.84,-354 2491.47,-350.259 2535.11,-348.766 2555.21,-348.245"/>
<polygon fill="#146e7d" stroke="#146e7d" stroke-width="4.8" points="2555.34,-352.443 2565.24,-348.019 2555.15,-344.046 2555.34,-352.443"/>
<text text-anchor="middle" x="2370.34" y="-381" font-family="Times New Roman,serif" font-size="40.00">3</text>
</g>
<!-- linearsvr&#45;&gt;0.073 -->
<g id="edge45" class="edge"><title>linearsvr&#45;&gt;0.073</title>
<path fill="none" stroke="#178784" stroke-width="4.4" d="M2133.99,-415.69C2182.42,-410.785 2238.88,-400.196 2285.84,-378 2320.28,-361.722 2314.24,-334.554 2349.84,-321 2366.87,-314.516 2372.85,-318.123 2390.84,-321 2420.4,-325.726 2425.42,-336.481 2454.84,-342 2491.03,-348.787 2534.88,-348.806 2555.12,-348.364"/>
<polygon fill="#178784" stroke="#178784" stroke-width="4.4" points="2555.35,-352.208 2565.23,-348.05 2555.12,-344.512 2555.35,-352.208"/>
<text text-anchor="middle" x="2370.34" y="-333" font-family="Times New Roman,serif" font-size="40.00">4</text>
</g>
<!-- linearsvr&#45;&gt;0.073 -->
<g id="edge48" class="edge"><title>linearsvr&#45;&gt;0.073</title>
<path fill="none" stroke="#1a9079" stroke-width="4" d="M2133.9,-422.112C2183.84,-418.685 2241.55,-407.481 2285.84,-378 2331.02,-347.926 2302.46,-300.475 2349.84,-274 2365.75,-265.111 2374.11,-266.772 2390.84,-274 2428.94,-290.461 2417.2,-324.521 2454.84,-342 2488.68,-357.712 2534.65,-353.192 2555.39,-349.979"/>
<polygon fill="#1a9079" stroke="#1a9079" stroke-width="4" points="2556.15,-353.399 2565.39,-348.203 2554.93,-346.507 2556.15,-353.399"/>
<text text-anchor="middle" x="2370.34" y="-286" font-family="Times New Roman,serif" font-size="40.00">5</text>
</g>
<!-- 0.072 -->
<g id="node35" class="node"><title>0.072</title>
<ellipse fill="black" stroke="black" cx="2567.34" cy="-343" rx="1.8" ry="1.8"/>
</g>
<!-- linearsvr&#45;&gt;0.072 -->
<g id="edge51" class="edge"><title>linearsvr&#45;&gt;0.072</title>
<path fill="none" stroke="#2ea045" stroke-width="3.6" d="M2132.86,-425.339C2184.05,-422.897 2243.11,-411.59 2285.84,-378 2344.11,-332.193 2288.19,-265.143 2349.84,-224 2430.47,-170.197 2448.55,-333.105 2454.84,-337 2471.37,-347.241 2530.47,-345.115 2555.27,-343.717"/>
<polygon fill="#2ea045" stroke="#2ea045" stroke-width="3.6" points="2555.56,-347.205 2565.32,-343.076 2555.12,-340.219 2555.56,-347.205"/>
<text text-anchor="middle" x="2370.34" y="-236" font-family="Times New Roman,serif" font-size="40.00">6</text>
</g>
<!-- linearsvr&#45;&gt;0.072 -->
<g id="edge54" class="edge"><title>linearsvr&#45;&gt;0.072</title>
<path fill="none" stroke="#56a63f" stroke-width="3.2" d="M2131.69,-427.17C2183.83,-425.428 2244.07,-414.191 2285.84,-378 2358.95,-314.669 2272.04,-227.462 2349.84,-170 2443.45,-100.865 2369.83,-275.111 2454.84,-337 2470.56,-348.446 2530.12,-345.637 2555.15,-343.886"/>
<polygon fill="#56a63f" stroke="#56a63f" stroke-width="3.2" points="2555.61,-347.361 2565.31,-343.093 2555.07,-340.382 2555.61,-347.361"/>
<text text-anchor="middle" x="2370.34" y="-182" font-family="Times New Roman,serif" font-size="40.00">7</text>
</g>
<!-- 0.069 -->
<g id="node38" class="node"><title>0.069</title>
<ellipse fill="black" stroke="black" cx="2567.34" cy="-280" rx="1.8" ry="1.8"/>
</g>
<!-- elasticnetcv&#45;&gt;0.069 -->
<g id="edge57" class="edge"><title>elasticnetcv&#45;&gt;0.069</title>
<path fill="none" stroke="#8dac4f" stroke-width="2.8" d="M2058.13,-308.2C2113.09,-252.972 2227.93,-149.266 2349.84,-110 2367.19,-104.413 2375.8,-99.7205 2390.84,-110 2455.45,-154.138 2391.45,-228.142 2454.84,-274 2470.6,-285.398 2530.14,-282.616 2555.16,-280.879"/>
<polygon fill="#8dac4f" stroke="#8dac4f" stroke-width="2.8" points="2555.61,-284.355 2565.31,-280.092 2555.07,-277.376 2555.61,-284.355"/>
<text text-anchor="middle" x="2370.34" y="-122" font-family="Times New Roman,serif" font-size="40.00">8</text>
</g>
<!-- 0.068 -->
<g id="node39" class="node"><title>0.068</title>
<ellipse fill="black" stroke="black" cx="2567.34" cy="-275" rx="1.8" ry="1.8"/>
</g>
<!-- elasticnetcv&#45;&gt;0.068 -->
<g id="edge60" class="edge"><title>elasticnetcv&#45;&gt;0.068</title>
<path fill="none" stroke="#b3ab60" stroke-width="2.4" d="M2050.84,-307.843C2100.8,-243.278 2215.88,-110.221 2349.84,-60 2366.9,-53.6036 2376.19,-49.1643 2390.84,-60 2468.95,-117.767 2378.32,-209.154 2454.84,-269 2470.16,-280.98 2529.95,-277.868 2555.1,-275.961"/>
<polygon fill="#b3ab60" stroke="#b3ab60" stroke-width="2.4" points="2555.63,-279.428 2565.3,-275.101 2555.05,-272.453 2555.63,-279.428"/>
<text text-anchor="middle" x="2370.34" y="-72" font-family="Times New Roman,serif" font-size="40.00">9</text>
</g>
<!-- elasticnetcv&#45;&gt;0.068 -->
<g id="edge63" class="edge"><title>elasticnetcv&#45;&gt;0.068</title>
<path fill="none" stroke="#b99370" stroke-width="2" d="M2045.62,-307.442C2090.74,-234.278 2203.79,-71.5945 2349.84,-10 2500.12,53.378 2395.15,-219.618 2454.84,-269 2469.83,-281.396 2529.8,-278.048 2555.05,-276.019"/>
<polygon fill="#b99370" stroke="#b99370" stroke-width="2" points="2555.65,-279.48 2565.3,-275.106 2555.03,-272.507 2555.65,-279.48"/>
<text text-anchor="middle" x="2370.34" y="-22" font-family="Times New Roman,serif" font-size="40.00">10</text>
</g>
<!-- 0.090 -->
<g id="node17" class="node"><title>0.090</title>
<polygon fill="none" stroke="black" points="2620.84,-531 2513.84,-531 2513.84,-479 2620.84,-479 2620.84,-531"/>
<text text-anchor="middle" x="2567.34" y="-495" font-family="Times New Roman,serif" font-size="40.00">0.090</text>
</g>
<!-- 0.089 -->
<g id="node18" class="node"><title>0.089</title>
<ellipse fill="black" stroke="black" cx="2567.34" cy="-476" rx="1.8" ry="1.8"/>
</g>
<!-- 0.090&#45;&gt;0.089 -->
<g id="edge1" class="edge"><title>0.090&#45;&gt;0.089</title>
<path fill="none" stroke="black" stroke-width="0.5" d="M2567.34,-478.662C2567.34,-478.379 2567.34,-478.096 2567.34,-477.813"/>
</g>
<!-- 0.088 -->
<g id="node19" class="node"><title>0.088</title>
<ellipse fill="black" stroke="black" cx="2567.34" cy="-471" rx="1.8" ry="1.8"/>
</g>
<!-- 0.089&#45;&gt;0.088 -->
<g id="edge2" class="edge"><title>0.089&#45;&gt;0.088</title>
<path fill="none" stroke="black" stroke-width="0.5" d="M2567.34,-474.047C2567.34,-473.656 2567.34,-473.266 2567.34,-472.875"/>
</g>
<!-- 0.088&#45;&gt;0.087 -->
<g id="edge3" class="edge"><title>0.088&#45;&gt;0.087</title>
<path fill="none" stroke="black" stroke-width="0.5" d="M2567.34,-469.047C2567.34,-468.656 2567.34,-468.266 2567.34,-467.875"/>
</g>
<!-- 0.086 -->
<g id="node21" class="node"><title>0.086</title>
<ellipse fill="black" stroke="black" cx="2567.34" cy="-461" rx="1.8" ry="1.8"/>
</g>
<!-- 0.087&#45;&gt;0.086 -->
<g id="edge4" class="edge"><title>0.087&#45;&gt;0.086</title>
<path fill="none" stroke="black" stroke-width="0.5" d="M2567.34,-464.047C2567.34,-463.656 2567.34,-463.266 2567.34,-462.875"/>
</g>
<!-- 0.085 -->
<g id="node22" class="node"><title>0.085</title>
<ellipse fill="black" stroke="black" cx="2567.34" cy="-456" rx="1.8" ry="1.8"/>
</g>
<!-- 0.086&#45;&gt;0.085 -->
<g id="edge5" class="edge"><title>0.086&#45;&gt;0.085</title>
<path fill="none" stroke="black" stroke-width="0.5" d="M2567.34,-459.047C2567.34,-458.656 2567.34,-458.266 2567.34,-457.875"/>
</g>
<!-- 0.084 -->
<g id="node23" class="node"><title>0.084</title>
<ellipse fill="black" stroke="black" cx="2567.34" cy="-451" rx="1.8" ry="1.8"/>
</g>
<!-- 0.085&#45;&gt;0.084 -->
<g id="edge6" class="edge"><title>0.085&#45;&gt;0.084</title>
<path fill="none" stroke="black" stroke-width="0.5" d="M2567.34,-454.047C2567.34,-453.656 2567.34,-453.266 2567.34,-452.875"/>
</g>
<!-- 0.084&#45;&gt;0.083 -->
<g id="edge7" class="edge"><title>0.084&#45;&gt;0.083</title>
<path fill="none" stroke="black" stroke-width="0.5" d="M2567.34,-449.047C2567.34,-448.656 2567.34,-448.266 2567.34,-447.875"/>
</g>
<!-- 0.082 -->
<g id="node25" class="node"><title>0.082</title>
<ellipse fill="black" stroke="black" cx="2567.34" cy="-441" rx="1.8" ry="1.8"/>
</g>
<!-- 0.083&#45;&gt;0.082 -->
<g id="edge8" class="edge"><title>0.083&#45;&gt;0.082</title>
<path fill="none" stroke="black" stroke-width="0.5" d="M2567.34,-444.047C2567.34,-443.656 2567.34,-443.266 2567.34,-442.875"/>
</g>
<!-- 0.081 -->
<g id="node26" class="node"><title>0.081</title>
<ellipse fill="black" stroke="black" cx="2567.34" cy="-436" rx="1.8" ry="1.8"/>
</g>
<!-- 0.082&#45;&gt;0.081 -->
<g id="edge9" class="edge"><title>0.082&#45;&gt;0.081</title>
<path fill="none" stroke="black" stroke-width="0.5" d="M2567.34,-439.047C2567.34,-438.656 2567.34,-438.266 2567.34,-437.875"/>
</g>
<!-- 0.080 -->
<g id="node27" class="node"><title>0.080</title>
<polygon fill="none" stroke="black" points="2620.84,-433 2513.84,-433 2513.84,-381 2620.84,-381 2620.84,-433"/>
<text text-anchor="middle" x="2567.34" y="-397" font-family="Times New Roman,serif" font-size="40.00">0.080</text>
</g>
<!-- 0.081&#45;&gt;0.080 -->
<g id="edge10" class="edge"><title>0.081&#45;&gt;0.080</title>
<path fill="none" stroke="black" stroke-width="0.5" d="M2567.34,-433.961C2567.34,-433.734 2567.34,-433.508 2567.34,-433.281"/>
</g>
<!-- 0.079 -->
<g id="node28" class="node"><title>0.079</title>
<ellipse fill="black" stroke="black" cx="2567.34" cy="-378" rx="1.8" ry="1.8"/>
</g>
<!-- 0.080&#45;&gt;0.079 -->
<g id="edge11" class="edge"><title>0.080&#45;&gt;0.079</title>
<path fill="none" stroke="black" stroke-width="0.5" d="M2567.34,-380.662C2567.34,-380.379 2567.34,-380.096 2567.34,-379.813"/>
</g>
<!-- 0.078 -->
<g id="node29" class="node"><title>0.078</title>
<ellipse fill="black" stroke="black" cx="2567.34" cy="-373" rx="1.8" ry="1.8"/>
</g>
<!-- 0.079&#45;&gt;0.078 -->
<g id="edge12" class="edge"><title>0.079&#45;&gt;0.078</title>
<path fill="none" stroke="black" stroke-width="0.5" d="M2567.34,-376.047C2567.34,-375.656 2567.34,-375.266 2567.34,-374.875"/>
</g>
<!-- 0.077 -->
<g id="node30" class="node"><title>0.077</title>
<ellipse fill="black" stroke="black" cx="2567.34" cy="-368" rx="1.8" ry="1.8"/>
</g>
<!-- 0.078&#45;&gt;0.077 -->
<g id="edge13" class="edge"><title>0.078&#45;&gt;0.077</title>
<path fill="none" stroke="black" stroke-width="0.5" d="M2567.34,-371.047C2567.34,-370.656 2567.34,-370.266 2567.34,-369.875"/>
</g>
<!-- 0.076 -->
<g id="node31" class="node"><title>0.076</title>
<ellipse fill="black" stroke="black" cx="2567.34" cy="-363" rx="1.8" ry="1.8"/>
</g>
<!-- 0.077&#45;&gt;0.076 -->
<g id="edge14" class="edge"><title>0.077&#45;&gt;0.076</title>
<path fill="none" stroke="black" stroke-width="0.5" d="M2567.34,-366.047C2567.34,-365.656 2567.34,-365.266 2567.34,-364.875"/>
</g>
<!-- 0.075 -->
<g id="node32" class="node"><title>0.075</title>
<ellipse fill="black" stroke="black" cx="2567.34" cy="-358" rx="1.8" ry="1.8"/>
</g>
<!-- 0.076&#45;&gt;0.075 -->
<g id="edge15" class="edge"><title>0.076&#45;&gt;0.075</title>
<path fill="none" stroke="black" stroke-width="0.5" d="M2567.34,-361.047C2567.34,-360.656 2567.34,-360.266 2567.34,-359.875"/>
</g>
<!-- 0.074 -->
<g id="node33" class="node"><title>0.074</title>
<ellipse fill="black" stroke="black" cx="2567.34" cy="-353" rx="1.8" ry="1.8"/>
</g>
<!-- 0.075&#45;&gt;0.074 -->
<g id="edge16" class="edge"><title>0.075&#45;&gt;0.074</title>
<path fill="none" stroke="black" stroke-width="0.5" d="M2567.34,-356.047C2567.34,-355.656 2567.34,-355.266 2567.34,-354.875"/>
</g>
<!-- 0.074&#45;&gt;0.073 -->
<g id="edge17" class="edge"><title>0.074&#45;&gt;0.073</title>
<path fill="none" stroke="black" stroke-width="0.5" d="M2567.34,-351.047C2567.34,-350.656 2567.34,-350.266 2567.34,-349.875"/>
</g>
<!-- 0.073&#45;&gt;0.072 -->
<g id="edge18" class="edge"><title>0.073&#45;&gt;0.072</title>
<path fill="none" stroke="black" stroke-width="0.5" d="M2567.34,-346.047C2567.34,-345.656 2567.34,-345.266 2567.34,-344.875"/>
</g>
<!-- 0.071 -->
<g id="node36" class="node"><title>0.071</title>
<ellipse fill="black" stroke="black" cx="2567.34" cy="-338" rx="1.8" ry="1.8"/>
</g>
<!-- 0.072&#45;&gt;0.071 -->
<g id="edge19" class="edge"><title>0.072&#45;&gt;0.071</title>
<path fill="none" stroke="black" stroke-width="0.5" d="M2567.34,-341.047C2567.34,-340.656 2567.34,-340.266 2567.34,-339.875"/>
</g>
<!-- 0.070 -->
<g id="node37" class="node"><title>0.070</title>
<polygon fill="none" stroke="black" points="2620.84,-335 2513.84,-335 2513.84,-283 2620.84,-283 2620.84,-335"/>
<text text-anchor="middle" x="2567.34" y="-299" font-family="Times New Roman,serif" font-size="40.00">0.070</text>
</g>
<!-- 0.071&#45;&gt;0.070 -->
<g id="edge20" class="edge"><title>0.071&#45;&gt;0.070</title>
<path fill="none" stroke="black" stroke-width="0.5" d="M2567.34,-335.961C2567.34,-335.734 2567.34,-335.508 2567.34,-335.281"/>
</g>
<!-- 0.070&#45;&gt;0.069 -->
<g id="edge21" class="edge"><title>0.070&#45;&gt;0.069</title>
<path fill="none" stroke="black" stroke-width="0.5" d="M2567.34,-282.662C2567.34,-282.379 2567.34,-282.096 2567.34,-281.813"/>
</g>
<!-- 0.069&#45;&gt;0.068 -->
<g id="edge22" class="edge"><title>0.069&#45;&gt;0.068</title>
<path fill="none" stroke="black" stroke-width="0.5" d="M2567.34,-278.047C2567.34,-277.656 2567.34,-277.266 2567.34,-276.875"/>
</g>
<!-- 0.067 -->
<g id="node40" class="node"><title>0.067</title>
<ellipse fill="black" stroke="black" cx="2567.34" cy="-270" rx="1.8" ry="1.8"/>
</g>
<!-- 0.068&#45;&gt;0.067 -->
<g id="edge23" class="edge"><title>0.068&#45;&gt;0.067</title>
<path fill="none" stroke="black" stroke-width="0.5" d="M2567.34,-273.047C2567.34,-272.656 2567.34,-272.266 2567.34,-271.875"/>
</g>
<!-- 0.066 -->
<g id="node41" class="node"><title>0.066</title>
<ellipse fill="black" stroke="black" cx="2567.34" cy="-265" rx="1.8" ry="1.8"/>
</g>
<!-- 0.067&#45;&gt;0.066 -->
<g id="edge24" class="edge"><title>0.067&#45;&gt;0.066</title>
<path fill="none" stroke="black" stroke-width="0.5" d="M2567.34,-268.047C2567.34,-267.656 2567.34,-267.266 2567.34,-266.875"/>
</g>
<!-- 0.065 -->
<g id="node42" class="node"><title>0.065</title>
<ellipse fill="black" stroke="black" cx="2567.34" cy="-260" rx="1.8" ry="1.8"/>
</g>
<!-- 0.066&#45;&gt;0.065 -->
<g id="edge25" class="edge"><title>0.066&#45;&gt;0.065</title>
<path fill="none" stroke="black" stroke-width="0.5" d="M2567.34,-263.047C2567.34,-262.656 2567.34,-262.266 2567.34,-261.875"/>
</g>
<!-- 0.064 -->
<g id="node43" class="node"><title>0.064</title>
<ellipse fill="black" stroke="black" cx="2567.34" cy="-255" rx="1.8" ry="1.8"/>
</g>
<!-- 0.065&#45;&gt;0.064 -->
<g id="edge26" class="edge"><title>0.065&#45;&gt;0.064</title>
<path fill="none" stroke="black" stroke-width="0.5" d="M2567.34,-258.047C2567.34,-257.656 2567.34,-257.266 2567.34,-256.875"/>
</g>
<!-- 0.063 -->
<g id="node44" class="node"><title>0.063</title>
<ellipse fill="black" stroke="black" cx="2567.34" cy="-250" rx="1.8" ry="1.8"/>
</g>
<!-- 0.064&#45;&gt;0.063 -->
<g id="edge27" class="edge"><title>0.064&#45;&gt;0.063</title>
<path fill="none" stroke="black" stroke-width="0.5" d="M2567.34,-253.047C2567.34,-252.656 2567.34,-252.266 2567.34,-251.875"/>
</g>
<!-- 0.062 -->
<g id="node45" class="node"><title>0.062</title>
<ellipse fill="black" stroke="black" cx="2567.34" cy="-245" rx="1.8" ry="1.8"/>
</g>
<!-- 0.063&#45;&gt;0.062 -->
<g id="edge28" class="edge"><title>0.063&#45;&gt;0.062</title>
<path fill="none" stroke="black" stroke-width="0.5" d="M2567.34,-248.047C2567.34,-247.656 2567.34,-247.266 2567.34,-246.875"/>
</g>
<!-- 0.061 -->
<g id="node46" class="node"><title>0.061</title>
<ellipse fill="black" stroke="black" cx="2567.34" cy="-240" rx="1.8" ry="1.8"/>
</g>
<!-- 0.062&#45;&gt;0.061 -->
<g id="edge29" class="edge"><title>0.062&#45;&gt;0.061</title>
<path fill="none" stroke="black" stroke-width="0.5" d="M2567.34,-243.047C2567.34,-242.656 2567.34,-242.266 2567.34,-241.875"/>
</g>
<!-- 0.060 -->
<g id="node47" class="node"><title>0.060</title>
<polygon fill="none" stroke="black" points="2620.84,-237 2513.84,-237 2513.84,-185 2620.84,-185 2620.84,-237"/>
<text text-anchor="middle" x="2567.34" y="-201" font-family="Times New Roman,serif" font-size="40.00">0.060</text>
</g>
<!-- 0.061&#45;&gt;0.060 -->
<g id="edge30" class="edge"><title>0.061&#45;&gt;0.060</title>
<path fill="none" stroke="black" stroke-width="0.5" d="M2567.34,-237.961C2567.34,-237.734 2567.34,-237.508 2567.34,-237.281"/>
</g>
</g>
</svg>
